<svg width="470" height="350" viewBox="0 0 470 350" fill="none" xmlns="http://www.w3.org/2000/svg">
<path d="M279.815 32.8199L123.288 61.02C57.5589 72.8618 8.86336 128.751 6.13276 195.483C2.86409 275.364 65.917 342.313 145.85 343.834L304.868 346.861C394.845 348.573 468.145 275.025 466.129 185.056C463.952 87.8624 375.492 15.5825 279.815 32.8199Z" fill="url(#paint0_linear_6978_47355)" fill-opacity="0.05"/>
<path opacity="0.7" d="M246.002 311.795C309.586 311.795 361.131 260.25 361.131 196.666C361.131 133.082 309.586 81.5371 246.002 81.5371C182.418 81.5371 130.873 133.082 130.873 196.666C130.873 260.25 182.418 311.795 246.002 311.795Z" fill="url(#paint1_linear_6978_47355)"/>
<path d="M246.002 93.871C259.884 93.871 273.346 96.5863 286.011 101.943C292.099 104.519 297.973 107.706 303.468 111.419C308.914 115.098 314.035 119.324 318.69 123.978C323.345 128.633 327.57 133.754 331.249 139.201C334.962 144.696 338.149 150.57 340.725 156.658C346.082 169.322 348.797 182.784 348.797 196.666C348.797 210.548 346.082 224.01 340.725 236.675C338.149 242.763 334.962 248.637 331.249 254.132C327.57 259.578 323.345 264.699 318.69 269.354C314.035 274.009 308.914 278.235 303.468 281.913C297.973 285.626 292.099 288.813 286.011 291.389C273.346 296.746 259.884 299.461 246.002 299.461C232.12 299.461 218.658 296.746 205.994 291.389C199.905 288.813 194.032 285.626 188.537 281.913C183.09 278.235 177.969 274.009 173.314 269.354C168.66 264.699 164.434 259.578 160.755 254.132C157.042 248.637 153.855 242.763 151.279 236.675C145.922 224.01 143.207 210.548 143.207 196.666C143.207 182.784 145.924 169.322 151.279 156.658C153.855 150.57 157.042 144.696 160.755 139.201C164.434 133.754 168.66 128.633 173.314 123.978C177.969 119.324 183.09 115.098 188.537 111.419C194.032 107.706 199.905 104.519 205.994 101.943C218.658 96.5881 232.12 93.871 246.002 93.871ZM246.002 81.5371C182.418 81.5371 130.873 133.082 130.873 196.666C130.873 260.25 182.418 311.795 246.002 311.795C309.586 311.795 361.131 260.25 361.131 196.666C361.131 133.082 309.586 81.5371 246.002 81.5371Z" fill="url(#paint2_linear_6978_47355)" fill-opacity="0.1"/>
<path d="M162.282 244.317C162.282 244.317 166.597 243.253 169.956 250.146C173.315 257.037 155.738 257.518 155.738 257.518C155.738 257.518 155.688 244.91 162.282 244.317Z" fill="#020059"/>
<path d="M246.003 244.539C232.012 258.465 219.606 253.026 219.606 253.026L183.772 288.689C166.515 290.278 155.738 252.871 155.738 252.871L197.826 226.202C194.542 209.328 199.917 201.61 199.917 201.61L195.246 177.682L193.182 167.105C193.157 166.984 193.148 166.86 193.148 166.74C193.148 166.038 193.539 165.384 194.183 165.057C194.397 164.948 194.613 164.846 194.833 164.749H194.835C199.842 162.549 205.762 163.768 209.409 167.908C214.487 173.674 217.131 182.247 217.131 182.247L256.022 197.829C256.02 197.831 259.994 230.612 246.003 244.539Z" fill="#F0A991"/>
<path d="M223.424 197.803C220.015 197.803 213.855 189.933 213.646 186.485L213.069 127.92C212.851 124.338 215.579 121.258 219.161 121.04C222.743 120.82 225.823 123.549 226.041 127.132L232.356 182.25C232.574 185.832 227.407 197.574 223.824 197.791C223.689 197.8 223.556 197.803 223.424 197.803Z" fill="#F0A991"/>
<path d="M234.317 194.169C234.249 194.169 234.18 194.167 234.112 194.165C230.524 194.053 227.707 191.055 227.82 187.467L229.979 118.142C230.092 114.554 233.091 111.741 236.677 111.85C240.264 111.962 243.082 114.96 242.969 118.548L243.893 185.542C243.782 189.062 237.812 194.169 234.317 194.169Z" fill="#F0A991"/>
<path d="M245.285 195.971C244.826 195.971 244.361 195.923 243.894 195.821C240.387 195.056 234.052 186.944 234.817 183.437L249.001 126.331C249.766 122.824 253.229 120.602 256.734 121.365C260.241 122.13 262.463 125.591 261.7 129.098L251.629 190.855C250.966 193.896 248.274 195.971 245.285 195.971Z" fill="#F0A991"/>
<path d="M252.443 205.568C251.894 205.568 251.338 205.498 250.782 205.352C247.312 204.437 245.241 200.883 246.156 197.412L260.46 143.164C261.375 139.694 264.928 137.622 268.4 138.538C271.869 139.453 273.941 143.007 273.026 146.478L258.722 200.726C257.954 203.639 255.322 205.568 252.443 205.568Z" fill="#F0A991"/>
<path d="M288.833 212.081C288.58 212.081 288.322 212.061 288.063 212.022C285.271 211.6 283.351 208.994 283.773 206.204L290.859 159.36C291.281 156.568 293.887 154.648 296.677 155.07C299.469 155.492 301.389 158.098 300.967 160.888L296.904 208.086C296.52 210.619 291.32 212.081 288.833 212.081Z" fill="#FCC094"/>
<path opacity="0.2" d="M223.852 194.236C223.852 194.236 241.067 197.774 240.653 214.959C240.238 232.144 255.142 227.502 255.142 227.502L260.585 209.702L261.552 193.75C261.552 193.75 249.54 194.63 237.224 188.79C232.267 186.439 226.293 188.547 224.114 193.582C224.025 193.795 223.936 194.013 223.852 194.236Z" fill="#3E5EA9"/>
<path d="M277.43 217.911C277.405 217.911 277.38 217.911 277.355 217.911C273.143 217.87 267.459 211.178 267.5 206.966L270.4 149.302C270.441 145.118 273.846 141.752 278.022 141.752C278.047 141.752 278.072 141.752 278.097 141.752C282.308 141.793 285.686 145.239 285.645 149.451L288.014 210.286C287.974 214.472 281.606 217.911 277.43 217.911Z" fill="#FCC094"/>
<path d="M261.894 220.373C257.962 220.373 252.159 211.59 251.836 207.602L249.791 157.535C249.451 153.338 252.579 149.661 256.777 149.321C260.974 148.982 264.651 152.11 264.99 156.307L272.882 210.832C273.222 215.029 266.713 220.011 262.516 220.35C262.309 220.366 262.102 220.373 261.894 220.373Z" fill="#FCC094"/>
<path d="M247.304 238.178C244.657 238.178 239.137 236.378 237.73 233.913L229.626 214.978C227.538 211.32 228.809 206.664 232.466 204.576C235.661 202.751 239.62 203.493 241.962 206.147C243.225 207.581 244.637 208.875 246.112 210.091L259.19 220.873C261.278 224.53 254.737 235.082 251.08 237.17C249.884 237.854 248.586 238.178 247.304 238.178Z" fill="#FCC094"/>
<path d="M299.917 250.748L298.644 241.28L306.838 189.906C306.838 189.906 309.071 172.526 300.285 173.334L294.463 202.292L251.841 207.603L249.746 215.348L237.73 233.915L242.192 249.886C242.192 249.886 246.389 269.201 274.13 273.123L295.078 269.864L299.917 250.748Z" fill="#FCC094"/>
<path d="M374.024 296.469C373.62 299.526 371.918 302.366 369.819 303.119C368.03 303.762 363.225 303.678 357.257 303.707C355.694 303.714 354.05 303.728 352.361 303.766C343.941 303.946 334.362 304.685 327.743 307.829C317.334 312.773 313.459 318.921 306.752 318.372C305.522 318.272 304.192 317.945 302.71 317.342C302.17 317.122 301.607 316.865 301.025 316.572C293.412 312.721 286.063 303.366 284.224 296.178C283.839 294.678 283.695 293.271 283.839 292.031C283.991 290.703 284.474 289.56 285.341 288.692C285.341 288.692 280.036 281.781 275.014 277.455C269.993 273.13 277.487 269.37 280.179 268.89C282.869 268.409 297.028 254.961 299.385 246.808C299.385 246.808 307.88 246.408 314.209 258.129C314.209 258.129 318.843 252.618 328.392 257.342C330.488 258.381 333.179 260.334 336.194 262.776C338.722 264.823 341.476 267.211 344.299 269.685C347.734 272.699 351.272 275.839 354.622 278.651C355.718 279.57 356.794 280.453 357.838 281.284C362.106 284.682 365.872 287.226 368.457 287.819C368.79 287.896 369.106 287.987 369.405 288.089C373.335 289.459 374.47 293.094 374.024 296.469Z" fill="#3E5EA9"/>
<path d="M385.192 268.224L384.692 266.376C384.592 266.009 384.209 265.797 383.847 265.909L381.968 266.488C381.298 266.694 380.801 265.866 381.296 265.371L382.69 263.977C382.96 263.707 382.951 263.264 382.669 263.006L381.212 261.675C380.695 261.203 381.156 260.354 381.834 260.529L383.741 261.022C384.109 261.117 384.483 260.888 384.565 260.518L384.982 258.648C385.134 257.964 386.102 257.94 386.286 258.618L386.787 260.466C386.887 260.833 387.27 261.045 387.632 260.933L389.511 260.354C390.181 260.148 390.678 260.976 390.183 261.471L388.789 262.865C388.519 263.135 388.528 263.578 388.81 263.836L390.267 265.167C390.784 265.639 390.323 266.488 389.645 266.313L387.738 265.82C387.37 265.725 386.996 265.954 386.914 266.324L386.499 268.194C386.345 268.88 385.377 268.901 385.192 268.224Z" fill="#B9C0F3"/>
<path d="M386.411 110.396L385.911 108.548C385.811 108.181 385.428 107.968 385.065 108.081L383.187 108.66C382.516 108.866 382.019 108.038 382.515 107.543L383.909 106.149C384.179 105.879 384.17 105.436 383.887 105.178L382.43 103.846C381.914 103.374 382.375 102.525 383.053 102.701L384.96 103.194C385.328 103.289 385.702 103.06 385.784 102.69L386.2 100.82C386.352 100.136 387.321 100.112 387.505 100.79L388.006 102.638C388.106 103.004 388.488 103.217 388.851 103.105L390.73 102.525C391.4 102.32 391.897 103.147 391.402 103.643L390.008 105.037C389.738 105.307 389.747 105.75 390.029 106.008L391.486 107.341C392.003 107.813 391.541 108.662 390.864 108.487L388.957 107.993C388.588 107.899 388.215 108.128 388.133 108.498L387.716 110.367C387.564 111.052 386.595 111.073 386.411 110.396Z" fill="#B9C0F3"/>
<path d="M103.683 126.145L103.182 124.297C103.082 123.93 102.7 123.717 102.337 123.83L100.458 124.409C99.7878 124.615 99.2908 123.787 99.786 123.292L101.18 121.898C101.45 121.628 101.441 121.185 101.159 120.927L99.702 119.595C99.1854 119.124 99.6466 118.274 100.324 118.45L102.231 118.943C102.6 119.038 102.973 118.809 103.055 118.439L103.472 116.569C103.624 115.885 104.593 115.861 104.777 116.539L105.277 118.387C105.377 118.753 105.76 118.966 106.123 118.854L108.001 118.274C108.672 118.069 109.169 118.897 108.674 119.392L107.279 120.786C107.009 121.056 107.018 121.499 107.301 121.757L108.758 123.09C109.274 123.562 108.813 124.411 108.135 124.236L106.228 123.742C105.86 123.648 105.486 123.877 105.404 124.247L104.989 126.116C104.836 126.799 103.867 126.822 103.683 126.145Z" fill="#B9C0F3"/>
<path d="M372.059 172.967C373.025 172.567 373.484 171.459 373.084 170.493C372.684 169.527 371.576 169.069 370.61 169.469C369.644 169.869 369.186 170.976 369.586 171.942C369.986 172.908 371.093 173.367 372.059 172.967Z" fill="#B9C0F3"/>
<path d="M372.662 179.141C373.401 178.402 373.401 177.203 372.662 176.464C371.923 175.725 370.724 175.725 369.985 176.464C369.246 177.203 369.246 178.402 369.985 179.141C370.724 179.881 371.923 179.881 372.662 179.141Z" fill="#B9C0F3"/>
<path d="M372.059 186.127C373.025 185.727 373.484 184.619 373.084 183.654C372.684 182.688 371.576 182.229 370.61 182.629C369.644 183.029 369.186 184.137 369.586 185.102C369.986 186.068 371.093 186.527 372.059 186.127Z" fill="#B9C0F3"/>
<path d="M372.061 199.286C373.027 198.886 373.486 197.779 373.086 196.813C372.685 195.847 371.578 195.388 370.612 195.788C369.646 196.188 369.188 197.296 369.588 198.262C369.988 199.228 371.095 199.686 372.061 199.286Z" fill="#B9C0F3"/>
<path d="M372.061 205.867C373.027 205.467 373.486 204.36 373.086 203.394C372.685 202.428 371.578 201.969 370.612 202.369C369.646 202.769 369.188 203.877 369.588 204.843C369.988 205.809 371.095 206.267 372.061 205.867Z" fill="#B9C0F3"/>
<path d="M378.922 179.141C379.661 178.402 379.661 177.203 378.922 176.464C378.183 175.725 376.984 175.725 376.245 176.464C375.506 177.203 375.506 178.402 376.245 179.141C376.984 179.881 378.183 179.881 378.922 179.141Z" fill="#B9C0F3"/>
<path d="M378.321 186.127C379.287 185.727 379.745 184.619 379.345 183.654C378.945 182.688 377.838 182.229 376.872 182.629C375.906 183.029 375.447 184.137 375.847 185.102C376.248 186.068 377.355 186.527 378.321 186.127Z" fill="#B9C0F3"/>
<path d="M378.321 192.706C379.287 192.306 379.745 191.199 379.345 190.233C378.945 189.267 377.838 188.808 376.872 189.208C375.906 189.608 375.447 190.716 375.847 191.682C376.248 192.647 377.355 193.106 378.321 192.706Z" fill="#B9C0F3"/>
<path d="M378.321 199.286C379.287 198.886 379.745 197.779 379.345 196.813C378.945 195.847 377.838 195.388 376.872 195.788C375.906 196.188 375.447 197.296 375.847 198.262C376.248 199.228 377.355 199.686 378.321 199.286Z" fill="#B9C0F3"/>
<path d="M378.321 205.867C379.287 205.467 379.745 204.36 379.345 203.394C378.945 202.428 377.838 201.969 376.872 202.369C375.906 202.769 375.447 203.877 375.847 204.843C376.248 205.809 377.355 206.267 378.321 205.867Z" fill="#B9C0F3"/>
<path d="M384.579 172.967C385.545 172.567 386.003 171.459 385.603 170.493C385.203 169.527 384.096 169.069 383.13 169.469C382.164 169.869 381.705 170.976 382.105 171.942C382.505 172.908 383.613 173.367 384.579 172.967Z" fill="#B9C0F3"/>
<path d="M385.182 179.141C385.921 178.402 385.921 177.203 385.182 176.464C384.442 175.725 383.244 175.725 382.505 176.464C381.765 177.203 381.765 178.402 382.505 179.141C383.244 179.881 384.442 179.881 385.182 179.141Z" fill="#B9C0F3"/>
<path d="M384.581 186.127C385.547 185.727 386.005 184.619 385.605 183.654C385.205 182.688 384.098 182.229 383.132 182.629C382.166 183.029 381.707 184.137 382.107 185.102C382.507 186.068 383.615 186.527 384.581 186.127Z" fill="#B9C0F3"/>
<path d="M384.581 192.706C385.547 192.306 386.005 191.199 385.605 190.233C385.205 189.267 384.098 188.808 383.132 189.208C382.166 189.608 381.707 190.716 382.107 191.682C382.507 192.647 383.615 193.106 384.581 192.706Z" fill="#B9C0F3"/>
<path d="M384.581 199.286C385.547 198.886 386.005 197.779 385.605 196.813C385.205 195.847 384.098 195.388 383.132 195.788C382.166 196.188 381.707 197.296 382.107 198.262C382.507 199.228 383.615 199.686 384.581 199.286Z" fill="#B9C0F3"/>
<path d="M390.84 186.127C391.806 185.727 392.265 184.619 391.865 183.654C391.465 182.688 390.357 182.229 389.392 182.629C388.426 183.029 387.967 184.137 388.367 185.102C388.767 186.068 389.875 186.527 390.84 186.127Z" fill="#B9C0F3"/>
<path d="M390.84 192.706C391.806 192.306 392.265 191.199 391.865 190.233C391.465 189.267 390.357 188.808 389.391 189.208C388.426 189.608 387.967 190.716 388.367 191.682C388.767 192.647 389.874 193.106 390.84 192.706Z" fill="#B9C0F3"/>
<path d="M390.84 199.286C391.806 198.886 392.265 197.779 391.865 196.813C391.465 195.847 390.357 195.388 389.392 195.788C388.426 196.188 387.967 197.296 388.367 198.262C388.767 199.228 389.875 199.686 390.84 199.286Z" fill="#B9C0F3"/>
<path d="M397.1 172.966C398.066 172.566 398.525 171.458 398.125 170.492C397.724 169.527 396.617 169.068 395.651 169.468C394.685 169.868 394.227 170.975 394.627 171.941C395.027 172.907 396.134 173.366 397.1 172.966Z" fill="#B9C0F3"/>
<path d="M397.701 179.141C398.44 178.402 398.44 177.203 397.701 176.464C396.962 175.725 395.763 175.725 395.024 176.464C394.285 177.203 394.285 178.402 395.024 179.141C395.763 179.881 396.962 179.881 397.701 179.141Z" fill="#B9C0F3"/>
<path d="M397.1 186.127C398.066 185.727 398.525 184.619 398.125 183.654C397.724 182.688 396.617 182.229 395.651 182.629C394.685 183.029 394.227 184.137 394.627 185.102C395.027 186.068 396.134 186.527 397.1 186.127Z" fill="#B9C0F3"/>
<path d="M403.36 172.966C404.326 172.566 404.785 171.458 404.384 170.492C403.984 169.527 402.877 169.068 401.911 169.468C400.945 169.868 400.486 170.975 400.887 171.941C401.287 172.907 402.394 173.366 403.36 172.966Z" fill="#B9C0F3"/>
<path d="M403.961 179.14C404.7 178.401 404.7 177.202 403.961 176.463C403.222 175.724 402.023 175.724 401.284 176.463C400.545 177.202 400.545 178.401 401.284 179.14C402.023 179.88 403.222 179.88 403.961 179.14Z" fill="#B9C0F3"/>
<path d="M403.36 186.127C404.326 185.727 404.785 184.619 404.384 183.654C403.984 182.688 402.877 182.229 401.911 182.629C400.945 183.029 400.486 184.137 400.887 185.102C401.287 186.068 402.394 186.527 403.36 186.127Z" fill="#B9C0F3"/>
<path d="M403.36 192.706C404.326 192.306 404.785 191.199 404.384 190.233C403.984 189.267 402.877 188.808 401.911 189.208C400.945 189.608 400.486 190.716 400.887 191.682C401.287 192.647 402.394 193.106 403.36 192.706Z" fill="#B9C0F3"/>
<path d="M403.36 199.285C404.326 198.885 404.785 197.778 404.384 196.812C403.984 195.846 402.877 195.387 401.911 195.787C400.945 196.187 400.486 197.295 400.887 198.261C401.287 199.227 402.394 199.685 403.36 199.285Z" fill="#B9C0F3"/>
<path d="M403.36 205.866C404.326 205.466 404.784 204.359 404.384 203.393C403.984 202.427 402.877 201.968 401.911 202.368C400.945 202.768 400.486 203.876 400.887 204.842C401.287 205.808 402.394 206.266 403.36 205.866Z" fill="#B9C0F3"/>
<path d="M410.761 184.681C410.929 183.649 410.228 182.677 409.196 182.509C408.164 182.342 407.191 183.043 407.024 184.075C406.856 185.107 407.557 186.079 408.589 186.247C409.621 186.414 410.594 185.713 410.761 184.681Z" fill="#B9C0F3"/>
<path d="M410.761 191.261C410.929 190.229 410.228 189.257 409.196 189.09C408.164 188.922 407.191 189.623 407.024 190.655C406.856 191.687 407.557 192.659 408.589 192.827C409.621 192.994 410.594 192.293 410.761 191.261Z" fill="#B9C0F3"/>
<path d="M415.145 186.273C414.099 186.273 413.252 185.426 413.252 184.38C413.252 183.335 414.099 182.487 415.145 182.487C416.191 182.487 417.038 183.335 417.038 184.38C417.036 185.426 416.189 186.273 415.145 186.273Z" fill="#B9C0F3"/>
<path d="M415.145 192.853C414.099 192.853 413.252 192.006 413.252 190.96C413.252 189.915 414.099 189.067 415.145 189.067C416.191 189.067 417.038 189.915 417.038 190.96C417.036 192.006 416.189 192.853 415.145 192.853Z" fill="#B9C0F3"/>
<path d="M420.67 179.141C421.409 178.402 421.409 177.203 420.67 176.464C419.931 175.725 418.732 175.725 417.993 176.464C417.254 177.203 417.254 178.402 417.993 179.141C418.732 179.881 419.931 179.881 420.67 179.141Z" fill="#B9C0F3"/>
<path d="M420.073 199.285C421.039 198.885 421.497 197.778 421.097 196.812C420.697 195.846 419.59 195.387 418.624 195.787C417.658 196.187 417.199 197.295 417.599 198.261C418 199.227 419.107 199.685 420.073 199.285Z" fill="#B9C0F3"/>
<path d="M420.073 205.866C421.039 205.466 421.497 204.359 421.097 203.393C420.697 202.427 419.59 201.968 418.624 202.368C417.658 202.768 417.199 203.876 417.599 204.842C418 205.808 419.107 206.266 420.073 205.866Z" fill="#B9C0F3"/>
<path d="M425.596 179.694C426.642 179.694 427.489 178.847 427.489 177.801C427.489 176.756 426.642 175.908 425.596 175.908C424.551 175.908 423.703 176.756 423.703 177.801C423.703 178.847 424.551 179.694 425.596 179.694Z" fill="#B9C0F3"/>
<path d="M425.596 186.273C426.642 186.273 427.489 185.426 427.489 184.38C427.489 183.335 426.642 182.487 425.596 182.487C424.551 182.487 423.703 183.335 423.703 184.38C423.703 185.426 424.551 186.273 425.596 186.273Z" fill="#B9C0F3"/>
<path d="M425.596 192.853C426.642 192.853 427.489 192.006 427.489 190.96C427.489 189.915 426.642 189.067 425.596 189.067C424.551 189.067 423.703 189.915 423.703 190.96C423.703 192.006 424.551 192.853 425.596 192.853Z" fill="#B9C0F3"/>
<path d="M425.596 199.432C426.642 199.432 427.489 198.585 427.489 197.539C427.489 196.494 426.642 195.646 425.596 195.646C424.551 195.646 423.703 196.494 423.703 197.539C423.703 198.585 424.551 199.432 425.596 199.432Z" fill="#B9C0F3"/>
<path d="M431.856 179.694C432.901 179.694 433.749 178.847 433.749 177.801C433.749 176.756 432.901 175.908 431.856 175.908C430.81 175.908 429.963 176.756 429.963 177.801C429.963 178.847 430.81 179.694 431.856 179.694Z" fill="#B9C0F3"/>
<path d="M431.856 186.273C432.901 186.273 433.749 185.426 433.749 184.38C433.749 183.335 432.901 182.487 431.856 182.487C430.81 182.487 429.963 183.335 429.963 184.38C429.963 185.426 430.81 186.273 431.856 186.273Z" fill="#B9C0F3"/>
<path d="M431.856 192.853C432.901 192.853 433.749 192.006 433.749 190.96C433.749 189.915 432.901 189.067 431.856 189.067C430.81 189.067 429.963 189.915 429.963 190.96C429.963 192.006 430.81 192.853 431.856 192.853Z" fill="#B9C0F3"/>
<path d="M438.116 186.273C439.161 186.273 440.009 185.426 440.009 184.38C440.009 183.335 439.161 182.487 438.116 182.487C437.07 182.487 436.223 183.335 436.223 184.38C436.223 185.426 437.07 186.273 438.116 186.273Z" fill="#B9C0F3"/>
<path d="M438.116 192.853C439.161 192.853 440.009 192.006 440.009 190.96C440.009 189.915 439.161 189.067 438.116 189.067C437.07 189.067 436.223 189.915 436.223 190.96C436.223 192.006 437.07 192.853 438.116 192.853Z" fill="#B9C0F3"/>
<path d="M444.375 179.694C445.421 179.694 446.268 178.847 446.268 177.801C446.268 176.756 445.421 175.908 444.375 175.908C443.33 175.908 442.482 176.756 442.482 177.801C442.482 178.847 443.33 179.694 444.375 179.694Z" fill="#B9C0F3"/>
<path d="M444.375 186.273C445.421 186.273 446.268 185.426 446.268 184.38C446.268 183.335 445.421 182.487 444.375 182.487C443.33 182.487 442.482 183.335 442.482 184.38C442.482 185.426 443.33 186.273 444.375 186.273Z" fill="#B9C0F3"/>
<path d="M450.635 186.273C451.681 186.273 452.528 185.426 452.528 184.38C452.528 183.335 451.681 182.487 450.635 182.487C449.59 182.487 448.742 183.335 448.742 184.38C448.742 185.426 449.59 186.273 450.635 186.273Z" fill="#B9C0F3"/>
<path d="M118.803 199.432C119.849 199.432 120.696 198.585 120.696 197.539C120.696 196.494 119.849 195.646 118.803 195.646C117.758 195.646 116.91 196.494 116.91 197.539C116.91 198.585 117.758 199.432 118.803 199.432Z" fill="#B9C0F3"/>
<path d="M118.803 192.853C119.849 192.853 120.696 192.006 120.696 190.96C120.696 189.915 119.849 189.067 118.803 189.067C117.758 189.067 116.91 189.915 116.91 190.96C116.91 192.006 117.758 192.853 118.803 192.853Z" fill="#B9C0F3"/>
<path d="M118.803 186.273C119.849 186.273 120.696 185.426 120.696 184.38C120.696 183.335 119.849 182.487 118.803 182.487C117.758 182.487 116.91 183.335 116.91 184.38C116.91 185.426 117.758 186.273 118.803 186.273Z" fill="#B9C0F3"/>
<path d="M118.803 179.694C119.849 179.694 120.696 178.847 120.696 177.801C120.696 176.756 119.849 175.908 118.803 175.908C117.758 175.908 116.91 176.756 116.91 177.801C116.91 178.847 117.758 179.694 118.803 179.694Z" fill="#B9C0F3"/>
<path d="M118.803 173.113C119.849 173.113 120.696 172.266 120.696 171.22C120.696 170.175 119.849 169.327 118.803 169.327C117.758 169.327 116.91 170.175 116.91 171.22C116.91 172.266 117.758 173.113 118.803 173.113Z" fill="#B9C0F3"/>
<path d="M112.543 206.014C113.589 206.014 114.436 205.166 114.436 204.121C114.436 203.075 113.589 202.228 112.543 202.228C111.498 202.228 110.65 203.075 110.65 204.121C110.65 205.166 111.498 206.014 112.543 206.014Z" fill="#B9C0F3"/>
<path d="M112.543 199.432C113.589 199.432 114.436 198.585 114.436 197.539C114.436 196.494 113.589 195.646 112.543 195.646C111.498 195.646 110.65 196.494 110.65 197.539C110.65 198.585 111.498 199.432 112.543 199.432Z" fill="#B9C0F3"/>
<path d="M112.543 192.853C113.589 192.853 114.436 192.006 114.436 190.96C114.436 189.915 113.589 189.067 112.543 189.067C111.498 189.067 110.65 189.915 110.65 190.96C110.65 192.006 111.498 192.853 112.543 192.853Z" fill="#B9C0F3"/>
<path d="M112.543 186.273C113.589 186.273 114.436 185.426 114.436 184.38C114.436 183.335 113.589 182.487 112.543 182.487C111.498 182.487 110.65 183.335 110.65 184.38C110.65 185.426 111.498 186.273 112.543 186.273Z" fill="#B9C0F3"/>
<path d="M112.543 179.694C113.589 179.694 114.436 178.847 114.436 177.801C114.436 176.756 113.589 175.908 112.543 175.908C111.498 175.908 110.65 176.756 110.65 177.801C110.65 178.847 111.498 179.694 112.543 179.694Z" fill="#B9C0F3"/>
<path d="M106.284 192.853C107.329 192.853 108.177 192.006 108.177 190.96C108.177 189.915 107.329 189.067 106.284 189.067C105.238 189.067 104.391 189.915 104.391 190.96C104.391 192.006 105.238 192.853 106.284 192.853Z" fill="#B9C0F3"/>
<path d="M106.284 186.273C107.329 186.273 108.177 185.426 108.177 184.38C108.177 183.335 107.329 182.487 106.284 182.487C105.238 182.487 104.391 183.335 104.391 184.38C104.391 185.426 105.238 186.273 106.284 186.273Z" fill="#B9C0F3"/>
<path d="M106.284 179.694C107.329 179.694 108.177 178.847 108.177 177.801C108.177 176.756 107.329 175.908 106.284 175.908C105.238 175.908 104.391 176.756 104.391 177.801C104.391 178.847 105.238 179.694 106.284 179.694Z" fill="#B9C0F3"/>
<path d="M100.024 206.014C101.069 206.014 101.917 205.166 101.917 204.121C101.917 203.075 101.069 202.228 100.024 202.228C98.9784 202.228 98.1309 203.075 98.1309 204.121C98.1309 205.166 98.9784 206.014 100.024 206.014Z" fill="#B9C0F3"/>
<path d="M100.024 199.432C101.069 199.432 101.917 198.585 101.917 197.539C101.917 196.494 101.069 195.646 100.024 195.646C98.9784 195.646 98.1309 196.494 98.1309 197.539C98.1309 198.585 98.9784 199.432 100.024 199.432Z" fill="#B9C0F3"/>
<path d="M100.024 192.853C101.069 192.853 101.917 192.006 101.917 190.96C101.917 189.915 101.069 189.067 100.024 189.067C98.9784 189.067 98.1309 189.915 98.1309 190.96C98.1309 192.006 98.9784 192.853 100.024 192.853Z" fill="#B9C0F3"/>
<path d="M93.766 206.014C94.8115 206.014 95.659 205.166 95.659 204.121C95.659 203.075 94.8115 202.228 93.766 202.228C92.7206 202.228 91.873 203.075 91.873 204.121C91.873 205.166 92.7206 206.014 93.766 206.014Z" fill="#B9C0F3"/>
<path d="M93.766 199.432C94.8115 199.432 95.659 198.585 95.659 197.539C95.659 196.494 94.8115 195.646 93.766 195.646C92.7206 195.646 91.873 196.494 91.873 197.539C91.873 198.585 92.7206 199.432 93.766 199.432Z" fill="#B9C0F3"/>
<path d="M93.766 192.853C94.8115 192.853 95.659 192.006 95.659 190.96C95.659 189.915 94.8115 189.067 93.766 189.067C92.7206 189.067 91.873 189.915 91.873 190.96C91.873 192.006 92.7206 192.853 93.766 192.853Z" fill="#B9C0F3"/>
<path d="M93.766 186.273C94.8115 186.273 95.659 185.426 95.659 184.38C95.659 183.335 94.8115 182.487 93.766 182.487C92.7206 182.487 91.873 183.335 91.873 184.38C91.873 185.426 92.7206 186.273 93.766 186.273Z" fill="#B9C0F3"/>
<path d="M93.766 179.694C94.8115 179.694 95.659 178.847 95.659 177.801C95.659 176.756 94.8115 175.908 93.766 175.908C92.7206 175.908 91.873 176.756 91.873 177.801C91.873 178.847 92.7206 179.694 93.766 179.694Z" fill="#B9C0F3"/>
<path d="M93.766 173.113C94.8115 173.113 95.659 172.266 95.659 171.22C95.659 170.175 94.8115 169.327 93.766 169.327C92.7206 169.327 91.873 170.175 91.873 171.22C91.873 172.266 92.7206 173.113 93.766 173.113Z" fill="#B9C0F3"/>
<path d="M87.5043 192.853C88.5498 192.853 89.3973 192.006 89.3973 190.96C89.3973 189.915 88.5498 189.067 87.5043 189.067C86.4588 189.067 85.6113 189.915 85.6113 190.96C85.6113 192.006 86.4588 192.853 87.5043 192.853Z" fill="#B9C0F3"/>
<path d="M87.5043 186.273C88.5498 186.273 89.3973 185.426 89.3973 184.38C89.3973 183.335 88.5498 182.487 87.5043 182.487C86.4588 182.487 85.6113 183.335 85.6113 184.38C85.6113 185.426 86.4588 186.273 87.5043 186.273Z" fill="#B9C0F3"/>
<path d="M83.1152 191.262C83.2832 190.231 82.5829 189.258 81.551 189.09C80.5191 188.922 79.5464 189.622 79.3784 190.654C79.2104 191.686 79.9107 192.659 80.9426 192.827C81.9745 192.995 82.9472 192.294 83.1152 191.262Z" fill="#B9C0F3"/>
<path d="M83.1152 184.683C83.2832 183.652 82.5829 182.679 81.551 182.511C80.5191 182.343 79.5464 183.043 79.3784 184.075C79.2104 185.107 79.9107 186.08 80.9426 186.248C81.9745 186.416 82.9472 185.715 83.1152 184.683Z" fill="#B9C0F3"/>
<path d="M77.7919 205.871C78.7567 205.468 79.2121 204.359 78.8092 203.394C78.4063 202.429 77.2975 201.974 76.3328 202.377C75.368 202.78 74.9126 203.889 75.3155 204.853C75.7184 205.818 76.8271 206.274 77.7919 205.871Z" fill="#B9C0F3"/>
<path d="M78.445 198.817C79.15 198.045 79.0957 196.848 78.3237 196.143C77.5517 195.438 76.3544 195.492 75.6495 196.264C74.9445 197.036 74.9989 198.234 75.7708 198.939C76.5428 199.644 77.7401 199.589 78.445 198.817Z" fill="#B9C0F3"/>
<path d="M77.79 179.55C78.7547 179.147 79.2102 178.039 78.8072 177.074C78.4043 176.109 77.2956 175.654 76.3308 176.057C75.3661 176.459 74.9106 177.568 75.3135 178.533C75.7165 179.498 76.8252 179.953 77.79 179.55Z" fill="#B9C0F3"/>
<path d="M77.7899 172.97C78.7547 172.567 79.2102 171.459 78.8072 170.494C78.4043 169.529 77.2956 169.074 76.3308 169.477C75.3661 169.879 74.9106 170.988 75.3135 171.953C75.7165 172.918 76.8252 173.373 77.7899 172.97Z" fill="#B9C0F3"/>
<path d="M70.7953 199.432C71.8408 199.432 72.6883 198.585 72.6883 197.539C72.6883 196.494 71.8408 195.646 70.7953 195.646C69.7499 195.646 68.9023 196.494 68.9023 197.539C68.9023 198.585 69.7499 199.432 70.7953 199.432Z" fill="#B9C0F3"/>
<path d="M70.7953 192.853C71.8408 192.853 72.6883 192.006 72.6883 190.96C72.6883 189.915 71.8408 189.067 70.7953 189.067C69.7499 189.067 68.9023 189.915 68.9023 190.96C68.9023 192.006 69.7499 192.853 70.7953 192.853Z" fill="#B9C0F3"/>
<path d="M70.7953 186.273C71.8408 186.273 72.6883 185.426 72.6883 184.38C72.6883 183.335 71.8408 182.487 70.7953 182.487C69.7499 182.487 68.9023 183.335 68.9023 184.38C68.9023 185.426 69.7499 186.273 70.7953 186.273Z" fill="#B9C0F3"/>
<path d="M70.7953 179.694C71.8408 179.694 72.6883 178.847 72.6883 177.801C72.6883 176.756 71.8408 175.908 70.7953 175.908C69.7499 175.908 68.9023 176.756 68.9023 177.801C68.9023 178.847 69.7499 179.694 70.7953 179.694Z" fill="#B9C0F3"/>
<path d="M70.7953 173.113C71.8408 173.113 72.6883 172.266 72.6883 171.22C72.6883 170.175 71.8408 169.327 70.7953 169.327C69.7499 169.327 68.9023 170.175 68.9023 171.22C68.9023 172.266 69.7499 173.113 70.7953 173.113Z" fill="#B9C0F3"/>
<path d="M64.5356 206.014C65.581 206.014 66.4285 205.166 66.4285 204.121C66.4285 203.075 65.581 202.228 64.5356 202.228C63.4901 202.228 62.6426 203.075 62.6426 204.121C62.6426 205.166 63.4901 206.014 64.5356 206.014Z" fill="#B9C0F3"/>
<path d="M64.5356 199.432C65.581 199.432 66.4285 198.585 66.4285 197.539C66.4285 196.494 65.581 195.646 64.5356 195.646C63.4901 195.646 62.6426 196.494 62.6426 197.539C62.6426 198.585 63.4901 199.432 64.5356 199.432Z" fill="#B9C0F3"/>
<path d="M64.5356 192.853C65.581 192.853 66.4285 192.006 66.4285 190.96C66.4285 189.915 65.581 189.067 64.5356 189.067C63.4901 189.067 62.6426 189.915 62.6426 190.96C62.6426 192.006 63.4901 192.853 64.5356 192.853Z" fill="#B9C0F3"/>
<path d="M64.5356 186.273C65.581 186.273 66.4285 185.426 66.4285 184.38C66.4285 183.335 65.581 182.487 64.5356 182.487C63.4901 182.487 62.6426 183.335 62.6426 184.38C62.6426 185.426 63.4901 186.273 64.5356 186.273Z" fill="#B9C0F3"/>
<path d="M64.5356 179.694C65.581 179.694 66.4285 178.847 66.4285 177.801C66.4285 176.756 65.581 175.908 64.5356 175.908C63.4901 175.908 62.6426 176.756 62.6426 177.801C62.6426 178.847 63.4901 179.694 64.5356 179.694Z" fill="#B9C0F3"/>
<path d="M58.2758 192.853C59.3213 192.853 60.1688 192.006 60.1688 190.96C60.1688 189.915 59.3213 189.067 58.2758 189.067C57.2303 189.067 56.3828 189.915 56.3828 190.96C56.3828 192.006 57.2303 192.853 58.2758 192.853Z" fill="#B9C0F3"/>
<path d="M58.2758 186.273C59.3213 186.273 60.1688 185.426 60.1688 184.38C60.1688 183.335 59.3213 182.487 58.2758 182.487C57.2303 182.487 56.3828 183.335 56.3828 184.38C56.3828 185.426 57.2303 186.273 58.2758 186.273Z" fill="#B9C0F3"/>
<path d="M58.2758 179.694C59.3213 179.694 60.1688 178.847 60.1688 177.801C60.1688 176.756 59.3213 175.908 58.2758 175.908C57.2303 175.908 56.3828 176.756 56.3828 177.801C56.3828 178.847 57.2303 179.694 58.2758 179.694Z" fill="#B9C0F3"/>
<path d="M52.016 206.014C53.0615 206.014 53.909 205.166 53.909 204.121C53.909 203.075 53.0615 202.228 52.016 202.228C50.9706 202.228 50.123 203.075 50.123 204.121C50.123 205.166 50.9706 206.014 52.016 206.014Z" fill="#B9C0F3"/>
<path d="M52.016 199.432C53.0615 199.432 53.909 198.585 53.909 197.539C53.909 196.494 53.0615 195.646 52.016 195.646C50.9706 195.646 50.123 196.494 50.123 197.539C50.123 198.585 50.9706 199.432 52.016 199.432Z" fill="#B9C0F3"/>
<path d="M52.016 192.853C53.0615 192.853 53.909 192.006 53.909 190.96C53.909 189.915 53.0615 189.067 52.016 189.067C50.9706 189.067 50.123 189.915 50.123 190.96C50.123 192.006 50.9706 192.853 52.016 192.853Z" fill="#B9C0F3"/>
<path d="M45.7563 192.853C46.8017 192.853 47.6493 192.006 47.6493 190.96C47.6493 189.915 46.8017 189.067 45.7563 189.067C44.7108 189.067 43.8633 189.915 43.8633 190.96C43.8633 192.006 44.7108 192.853 45.7563 192.853Z" fill="#B9C0F3"/>
<path d="M167.348 166.486C168.394 166.486 169.241 165.639 169.241 164.593C169.241 163.548 168.394 162.7 167.348 162.7C166.303 162.7 165.455 163.548 165.455 164.593C165.455 165.639 166.303 166.486 167.348 166.486Z" fill="#B9C0F3"/>
<path d="M424.533 216.075C424.7 215.043 423.999 214.07 422.967 213.903C421.935 213.735 420.963 214.436 420.795 215.468C420.628 216.5 421.329 217.473 422.361 217.64C423.393 217.808 424.365 217.107 424.533 216.075Z" fill="#B9C0F3"/>
<path d="M384.474 230.957C384.641 229.925 383.941 228.952 382.909 228.785C381.877 228.617 380.904 229.318 380.737 230.35C380.569 231.382 381.27 232.355 382.302 232.522C383.334 232.689 384.306 231.989 384.474 230.957Z" fill="#B9C0F3"/>
<path d="M152.977 102.542C152.977 103.588 152.13 104.435 151.084 104.435C150.039 104.435 149.191 103.588 149.191 102.542C149.191 101.497 150.039 100.649 151.084 100.649C152.13 100.649 152.977 101.497 152.977 102.542Z" fill="#B9C0F3"/>
<path d="M152.411 123.82C152.411 124.435 151.912 124.932 151.299 124.932C150.684 124.932 150.188 124.433 150.188 123.82C150.188 123.205 150.686 122.708 151.299 122.708C151.912 122.708 152.411 123.207 152.411 123.82Z" fill="#B9C0F3"/>
<path d="M167.35 165.04H167.234C162.953 165.04 158.918 163.381 155.876 160.367C152.834 157.355 151.136 153.337 151.093 149.056L150.639 102.546C150.637 102.299 150.834 102.098 151.082 102.096C151.327 102.094 151.531 102.291 151.532 102.539L151.986 149.049C152.026 153.094 153.631 156.889 156.504 159.734C159.378 162.58 163.187 164.148 167.232 164.148H167.348C167.595 164.148 167.795 164.348 167.795 164.595C167.797 164.84 167.597 165.04 167.35 165.04Z" fill="#B9C0F3"/>
<path d="M382.597 231.101C382.351 231.101 382.15 230.901 382.15 230.654C382.15 222.294 388.952 215.465 397.312 215.43L422.654 215.324H422.656C422.902 215.324 423.101 215.523 423.103 215.769C423.104 216.016 422.904 216.216 422.658 216.218L397.316 216.323C389.447 216.356 383.044 222.784 383.044 230.654C383.044 230.901 382.844 231.101 382.597 231.101Z" fill="#B9C0F3"/>
<path d="M327.023 105.427C327.023 106.042 326.524 106.539 325.911 106.539C325.298 106.539 324.799 106.04 324.799 105.427C324.799 104.812 325.298 104.315 325.911 104.315C326.524 104.315 327.023 104.812 327.023 105.427Z" fill="#B9C0F3"/>
<path d="M325.911 90.1952C326.956 90.1952 327.804 89.3476 327.804 88.3022C327.804 87.2567 326.956 86.4092 325.911 86.4092C324.865 86.4092 324.018 87.2567 324.018 88.3022C324.018 89.3476 324.865 90.1952 325.911 90.1952Z" fill="#B9C0F3"/>
<path d="M325.91 125.225C325.663 125.225 325.463 125.024 325.463 124.778V88.3033C325.463 88.0566 325.663 87.8564 325.91 87.8564C326.156 87.8564 326.357 88.0566 326.357 88.3033V124.778C326.357 125.024 326.156 125.225 325.91 125.225Z" fill="#B9C0F3"/>
<path d="M71.0586 257.59C71.7978 256.851 71.7978 255.653 71.0586 254.913C70.3193 254.174 69.1208 254.174 68.3815 254.913C67.6423 255.653 67.6423 256.851 68.3815 257.59C69.1208 258.33 70.3193 258.33 71.0586 257.59Z" fill="#B9C0F3"/>
<path d="M95.5859 256.253C95.5859 256.868 96.0847 257.365 96.6978 257.365C97.3127 257.365 97.8096 256.867 97.8096 256.253C97.8096 255.639 97.3109 255.142 96.6978 255.142C96.0847 255.142 95.5859 255.64 95.5859 256.253Z" fill="#B9C0F3"/>
<path d="M114.836 256.7H69.7223C69.4756 256.7 69.2754 256.5 69.2754 256.253C69.2754 256.006 69.4756 255.806 69.7223 255.806H114.836C116.868 255.806 118.52 254.152 118.52 252.122V251.804C118.52 249.28 120.574 247.226 123.098 247.226C125.13 247.226 126.782 245.572 126.782 243.542V239.674C126.782 237.15 128.836 235.096 131.36 235.096L148.545 235.189C148.792 235.19 148.99 235.391 148.99 235.637C148.988 235.884 148.788 236.082 148.543 236.082H148.541L131.358 235.989C129.329 235.989 127.676 237.643 127.676 239.674V243.542C127.676 246.066 125.622 248.12 123.098 248.12C121.065 248.12 119.414 249.773 119.414 251.804V252.122C119.415 254.648 117.362 256.7 114.836 256.7Z" fill="#B9C0F3"/>
<path d="M326.466 311.755C325.093 312.822 323.874 314.226 323.881 315.813C323.89 317.461 325.272 318.934 326.977 319.703C328.682 320.471 330.661 320.648 332.588 320.682C337.037 320.761 341.502 320.15 345.699 318.888C348.329 318.096 351.078 316.853 352.079 314.63C352.908 312.792 352.224 310.533 350.454 309.271C344.425 304.963 331.682 307.699 326.466 311.755Z" fill="#3E5EA9"/>
<path d="M162.282 244.318C162.282 244.318 152.765 246.733 167.528 273.121C167.528 273.121 175.068 285.678 186.029 286.443L164.829 307.152C164.829 307.152 144.875 315.426 135.503 291.103C128.451 272.803 118.6 271.861 114.154 272.517C113.623 272.595 113.332 271.921 113.756 271.591C121.372 265.667 149.41 244.544 162.282 244.318Z" fill="url(#paint3_linear_6978_47355)"/>
<path d="M124.415 278.846C122.742 277.582 120.785 276.706 118.579 276.487C108.799 275.505 105.489 284.838 110.435 291.239C113.597 295.332 119.485 297.104 124.842 297.025C130.464 296.943 131.621 292.236 130.48 288.075C129.576 284.772 127.474 281.157 124.415 278.846Z" fill="url(#paint4_linear_6978_47355)"/>
<path d="M364.603 299.508C365.817 299.508 366.802 298.523 366.802 297.309C366.802 296.095 365.817 295.11 364.603 295.11C363.389 295.11 362.404 296.095 362.404 297.309C362.404 298.523 363.389 299.508 364.603 299.508Z" fill="#7EEDBA"/>
<path d="M374.022 296.469C373.309 296.894 372.474 297.137 371.584 297.137C368.942 297.137 366.801 294.994 366.801 292.352C366.801 290.495 367.859 288.883 369.405 288.091C373.334 289.458 374.469 293.094 374.022 296.469Z" fill="#7EEDBA"/>
<path d="M357.834 281.284C356.789 280.453 355.713 279.568 354.619 278.651C351.441 282.527 349.533 287.478 349.533 292.869C349.533 296.822 350.559 300.538 352.357 303.766C354.047 303.729 355.691 303.714 357.254 303.707C355.016 300.672 353.691 296.922 353.691 292.869C353.691 288.477 355.246 284.443 357.834 281.284Z" fill="#7EEDBA"/>
<path d="M300.524 298.583C295.941 294 289.856 291.816 283.84 292.03C283.696 293.271 283.84 294.676 284.224 296.177C289.048 296.068 293.909 297.848 297.584 301.524C301.885 305.824 303.593 311.75 302.71 317.341C304.192 317.942 305.52 318.271 306.752 318.371C307.975 311.4 305.898 303.958 300.524 298.583Z" fill="#7EEDBA"/>
<path d="M304.215 293.802C305.705 293.802 306.912 292.594 306.912 291.105C306.912 289.615 305.705 288.407 304.215 288.407C302.725 288.407 301.518 289.615 301.518 291.105C301.518 292.594 302.725 293.802 304.215 293.802Z" fill="#7EEDBA"/>
<path d="M338.107 290.792C338.36 289.72 337.696 288.645 336.624 288.392C335.552 288.139 334.477 288.803 334.224 289.875C333.971 290.947 334.635 292.022 335.707 292.275C336.779 292.528 337.854 291.864 338.107 290.792Z" fill="#7EEDBA"/>
<path d="M322.13 262.931C322.383 261.859 321.72 260.785 320.647 260.532C319.575 260.278 318.501 260.942 318.247 262.015C317.994 263.087 318.658 264.161 319.73 264.414C320.803 264.668 321.877 264.004 322.13 262.931Z" fill="#7EEDBA"/>
<path d="M344.301 269.684C343.366 271.297 341.618 272.382 339.62 272.382C336.631 272.382 334.207 269.958 334.207 266.969C334.207 265.278 334.983 263.769 336.198 262.775C338.724 264.822 341.477 267.208 344.301 269.684Z" fill="#7EEDBA"/>
<path d="M319.538 304.156C321.928 301.766 321.928 297.892 319.538 295.503C317.149 293.113 313.275 293.113 310.885 295.503C308.496 297.892 308.496 301.766 310.885 304.156C313.275 306.545 317.149 306.545 319.538 304.156Z" fill="#7EEDBA"/>
<path d="M260.158 269.691C249.807 265.051 243.202 257.243 240.522 246.484C238.476 238.265 236.531 232.253 234.018 226.381L234.84 226.029C237.373 231.948 239.332 238 241.389 246.268C243.997 256.746 250.434 264.352 260.523 268.874L260.158 269.691Z" fill="#020059"/>
<path d="M244.408 207.267L243.797 207.919L257.941 221.192L258.552 220.54L244.408 207.267Z" fill="#020059"/>
<path d="M234.663 199.935C228.092 194.515 221.382 193.707 221.316 193.7L221.039 193.67L220.944 193.407C220.89 193.255 215.458 178.049 210.693 170.246C208.758 167.079 205.918 165.137 202.252 164.472C199.492 163.972 197.27 164.422 197.249 164.428L197.064 163.554C197.161 163.534 199.451 163.064 202.377 163.587C205.089 164.074 208.866 165.541 211.456 169.781C215.926 177.099 220.955 190.808 221.695 192.853C223.069 193.058 229.134 194.218 235.233 199.249L234.663 199.935Z" fill="#020059"/>
<path d="M223.113 248.963L199.602 272.296L200.231 272.93L223.743 249.597L223.113 248.963Z" fill="#020059"/>
<path d="M225.683 254.549C223.809 254.549 221.52 254.311 219.434 253.44L219.779 252.616C224.008 254.382 229.329 253.347 229.383 253.337L229.558 254.212C229.437 254.236 227.833 254.549 225.683 254.549Z" fill="#020059"/>
<path d="M311.522 254.709C306.908 248.017 301.183 247.325 299.745 247.259C298.943 250.543 295.883 254.264 295.747 254.427L295.059 253.857C295.091 253.817 298.342 249.865 298.946 246.723C298.986 246.521 299.159 246.371 299.365 246.362C299.661 246.347 306.685 246.122 312.255 254.202L311.522 254.709Z" fill="white"/>
<path d="M288.148 278.9C284.781 272.162 281.686 270.993 281.654 270.983L281.955 270.141C282.094 270.191 285.419 271.444 288.947 278.499L288.148 278.9Z" fill="white"/>
<path d="M303.57 265.822C301.236 265.429 298.955 263.94 296.974 261.516C295.494 259.707 294.706 258.034 294.672 257.964L295.482 257.585C295.512 257.649 298.576 264.072 303.719 264.941L303.57 265.822Z" fill="white"/>
<path d="M182.087 291.406L181.427 290.802L185.183 286.707C175.809 284.39 169.721 277.364 166.237 271.797C162.376 265.63 160.794 259.876 160.779 259.819L161.643 259.585C161.659 259.642 163.212 265.287 167.009 271.343C170.493 276.903 176.638 283.958 186.126 286.006C186.284 286.04 186.409 286.155 186.457 286.308C186.505 286.46 186.47 286.628 186.361 286.746L182.087 291.406Z" fill="white"/>
<path d="M173.104 235.513L172.244 235.755L176.535 251.009L177.396 250.767L173.104 235.513Z" fill="#020059"/>
<path d="M179.341 236.793L178.48 237.035L182.772 252.289L183.632 252.047L179.341 236.793Z" fill="#020059"/>
<path d="M229.36 166.709C229.328 166.368 226.207 132.51 225.595 127.183C225.354 125.08 224.51 123.51 223.089 122.518C222.038 121.785 221.069 121.662 221.059 121.66L221.166 120.773C221.214 120.779 222.367 120.927 223.599 121.785C224.728 122.572 226.144 124.13 226.482 127.082C227.093 132.419 230.216 166.286 230.248 166.627L229.36 166.709Z" fill="#020059"/>
<path d="M243.547 155.298L242.653 155.275C242.662 154.928 243.545 120.493 242.133 116.205C240.809 112.177 236.862 112.292 236.694 112.299L236.654 111.405C236.701 111.403 241.443 111.244 242.982 115.926C244.441 120.361 243.585 153.873 243.547 155.298Z" fill="#020059"/>
<path d="M250.369 196.677L249.405 156.731C249.394 156.014 249.489 155.317 249.684 154.658C251.663 147.988 257.613 148.848 257.672 148.859L257.533 149.742L257.603 149.3L257.535 149.742C257.322 149.71 252.292 149.009 250.542 154.911C250.372 155.485 250.29 156.091 250.299 156.713L251.262 196.656L250.369 196.677Z" fill="#020059"/>
<path d="M268.748 208.187C268.73 208.187 268.712 208.187 268.695 208.187C267.059 208.153 265.788 206.54 265.734 206.471L266.44 205.922C266.451 205.936 267.509 207.27 268.718 207.293C269.29 207.304 269.792 207.028 270.28 206.451L270.963 207.028C270.309 207.797 269.565 208.187 268.748 208.187Z" fill="#020059"/>
<path d="M282.483 208.187C282.465 208.187 282.447 208.187 282.429 208.187C280.793 208.153 279.522 206.54 279.469 206.471L280.175 205.922C280.186 205.936 281.244 207.27 282.452 207.293C282.463 207.293 282.474 207.293 282.484 207.293C283.035 207.293 283.535 207.018 284.014 206.451L284.697 207.028C284.043 207.797 283.299 208.187 282.483 208.187Z" fill="#020059"/>
<path d="M294.858 210.55C294.84 210.55 294.822 210.55 294.804 210.55C293.168 210.516 291.897 208.903 291.844 208.834L292.55 208.285L292.198 208.558L292.55 208.283C292.561 208.298 293.619 209.631 294.827 209.654C295.392 209.665 295.901 209.39 296.389 208.812L297.072 209.39C296.42 210.16 295.676 210.55 294.858 210.55Z" fill="#020059"/>
<path d="M301.256 162.993L296.291 196.236L297.175 196.368L302.14 163.125L301.256 162.993Z" fill="#B9C0F3"/>
<path d="M287.56 163.032L286.34 192.339L287.233 192.376L288.453 163.069L287.56 163.032Z" fill="#B9C0F3"/>
<path d="M237.707 218.308C236.982 218.308 236.242 218.145 235.528 217.813C235.443 217.773 235.359 217.732 235.273 217.688L235.675 216.889C235.754 216.928 235.832 216.965 235.909 217.001C238.029 217.992 239.897 217.028 240.85 215.9C241.821 214.754 242.475 212.718 241.125 210.756C240.021 209.149 238.657 207.962 238.108 207.517L233.677 210.48L233.18 209.737L237.881 206.594C238.038 206.489 238.244 206.494 238.394 206.607C238.474 206.666 240.362 208.073 241.86 210.25C243.206 212.207 243.077 214.652 241.531 216.479C240.519 217.677 239.139 218.308 237.707 218.308Z" fill="#020059"/>
<path d="M257.172 163.69C256.417 163.69 255.681 163.422 255.037 162.903C253.888 161.976 253.232 160.422 253.282 158.744L253.409 154.511C253.443 153.406 254.203 152.541 255.141 152.541H260.439V153.435H255.141C254.698 153.435 254.322 153.93 254.303 154.538L254.176 158.771C254.135 160.149 254.68 161.466 255.599 162.206C256.24 162.723 257 162.907 257.742 162.723C257.874 162.691 258.01 162.648 258.148 162.599L258.451 163.44C258.285 163.5 258.119 163.55 257.956 163.591C257.695 163.658 257.433 163.69 257.172 163.69Z" fill="#020059"/>
<path d="M278.155 156.251C277.379 156.251 276.623 155.975 275.965 155.443C274.818 154.513 274.164 152.967 274.214 151.306L274.342 147.073C274.376 145.969 275.145 145.104 276.094 145.104H281.476V145.997H276.094C275.64 145.997 275.254 146.492 275.236 147.102L275.107 151.335C275.064 152.718 275.597 153.995 276.528 154.751C277.188 155.285 277.973 155.477 278.738 155.289C278.874 155.257 279.011 155.214 279.151 155.164L279.451 156.006C279.283 156.065 279.115 156.116 278.951 156.156C278.686 156.22 278.42 156.251 278.155 156.251Z" fill="#020059"/>
<path d="M295.666 164.92C294.79 164.92 293.966 164.541 293.389 163.867C292.777 163.154 292.531 162.217 292.713 161.295L293.205 158.801C293.351 158.056 294.054 157.566 294.803 157.686L298.703 158.304L298.564 159.187L294.663 158.569C294.392 158.526 294.136 158.705 294.082 158.975L293.591 161.468C293.462 162.119 293.637 162.782 294.068 163.286C294.492 163.781 295.108 164.051 295.752 164.025C295.85 164.021 295.954 164.012 296.058 163.999L296.17 164.886C296.04 164.902 295.911 164.913 295.788 164.918C295.748 164.92 295.707 164.92 295.666 164.92Z" fill="#020059"/>
<path d="M196.288 177.583L196.086 176.713L199.897 175.83C200.107 175.762 200.237 175.558 200.21 175.34C200.04 173.94 199.372 169.241 197.938 167.526C197.727 167.276 197.391 167.149 197.059 167.198L195.312 167.45L195.186 166.565L196.932 166.313C197.57 166.222 198.217 166.466 198.625 166.953C200.173 168.803 200.872 173.357 201.099 175.231C201.179 175.887 200.777 176.5 200.142 176.689C200.133 176.693 200.124 176.695 200.116 176.696L196.288 177.583Z" fill="#020059"/>
<path d="M274.724 103.983L269.82 115.829L270.646 116.171L275.55 104.325L274.724 103.983Z" fill="white"/>
<path d="M289.465 117.379L277.623 122.29L277.965 123.116L289.807 118.204L289.465 117.379Z" fill="white"/>
<path d="M280.006 112.117L274.121 119.259L274.811 119.827L280.695 112.685L280.006 112.117Z" fill="white"/>
<path d="M242.313 276.647L241.42 276.687L241.989 289.494L242.882 289.454L242.313 276.647Z" fill="white"/>
<path d="M231.882 273.503L223.229 282.963L223.888 283.566L232.542 274.106L231.882 273.503Z" fill="white"/>
<path d="M236.132 275.13L233.818 284.093L234.684 284.316L236.998 275.354L236.132 275.13Z" fill="white"/>
<path d="M171.562 156.418L171.521 157.311L184.329 157.895L184.37 157.002L171.562 156.418Z" fill="white"/>
<path d="M179.746 138.288L179.086 138.891L187.729 148.36L188.389 147.757L179.746 138.288Z" fill="white"/>
<path d="M177.654 148.743L177.354 149.585L186.072 152.693L186.372 151.851L177.654 148.743Z" fill="white"/>
<path d="M267.953 170.835L267.066 170.944L269.362 189.528L270.249 189.419L267.953 170.835Z" fill="#B9C0F3"/>
<path d="M285.654 301.1C285.602 301.023 284.385 299.196 283.677 296.727C282.723 293.399 283.18 290.519 285 288.399C286.575 286.565 289.449 284.479 292.776 282.066C298.394 277.989 304.761 273.368 306.674 268.593C310.846 258.181 316.825 253.743 324.451 255.4L324.261 256.274C320.296 255.412 316.777 256.327 313.797 258.996C311.4 261.143 309.282 264.484 307.503 268.926C305.494 273.94 299.016 278.641 293.3 282.788C290.155 285.069 287.184 287.225 285.677 288.98C281.75 293.553 286.348 300.529 286.396 300.599L285.654 301.1Z" fill="white"/>
<path d="M320.467 303.758L319.827 303.134C320.352 302.594 321.012 301.012 320.831 299.184C320.715 298.016 320.199 296.368 318.393 295.133C314.836 292.7 311.742 295.335 311.611 295.448L311.021 294.776C311.059 294.743 314.759 291.565 318.897 294.395C320.987 295.823 321.586 297.739 321.72 299.094C321.918 301.086 321.221 302.984 320.467 303.758Z" fill="white"/>
<path d="M339.43 272.767C338.279 272.767 337.262 272.495 336.393 271.952C334.484 270.758 334.014 268.701 333.994 268.613L334.866 268.42C334.87 268.438 335.285 270.211 336.876 271.2C338.038 271.922 339.544 272.063 341.357 271.623L341.568 272.492C340.812 272.676 340.099 272.767 339.43 272.767Z" fill="white"/>
<path d="M337.71 290.342C337.58 288.757 336.325 288.753 336.18 288.759L336.141 287.865C336.164 287.863 338.396 287.786 338.602 290.269L337.71 290.342Z" fill="white"/>
<path d="M349.537 297.388C347.647 286.747 352.831 280.276 353.053 280.006L353.744 280.572C353.693 280.635 348.602 287.015 350.416 297.232L349.537 297.388Z" fill="white"/>
<path d="M300.22 298.908C292.705 291.88 283.962 292.468 283.875 292.473L283.807 291.583C284.178 291.555 293.03 290.959 300.831 298.256L300.22 298.908Z" fill="white"/>
<path d="M290.219 243.707L272.866 242.43C272.684 242.416 272.528 242.295 272.473 242.119C272.417 241.944 272.475 241.755 272.616 241.639L290.382 227.101L263.113 233.7L262.902 232.831L292.077 225.771C292.279 225.721 292.489 225.819 292.582 226.007C292.675 226.193 292.627 226.42 292.464 226.552L274.048 241.621L290.284 242.815L290.219 243.707Z" fill="white"/>
<path d="M162.437 248.798L161.963 248.04L197.325 225.989C196.392 221.068 195.643 213.946 197.182 207.383C198.132 203.334 199.494 201.43 199.553 201.35L200.275 201.875L199.914 201.612L200.275 201.875C200.262 201.893 198.941 203.756 198.037 207.652C197.2 211.256 196.56 217.387 198.26 226.119L198.319 226.421L162.437 248.798Z" fill="#020059"/>
<path d="M370.272 113.692L353.777 120.617L354.123 121.441L370.617 114.516L370.272 113.692Z" fill="#002E55"/>
<path d="M299.361 144.388C299.224 144.388 299.088 144.324 299.002 144.208C298.879 144.041 298.886 143.814 299.018 143.655L317.848 121.056L318.534 121.628L300.875 142.822L348.926 122.657L349.273 123.481L299.533 144.354C299.478 144.377 299.419 144.388 299.361 144.388Z" fill="#002E55"/>
<path d="M114.476 218.095L91.7832 222.771L91.9636 223.646L114.656 218.97L114.476 218.095Z" fill="#020059"/>
<path d="M120.788 217.712L120.607 216.837L175.618 205.502L149.673 198.234L149.914 197.374L177.633 205.139C177.831 205.194 177.966 205.379 177.958 205.584C177.951 205.79 177.805 205.965 177.603 206.006L120.788 217.712Z" fill="#020059"/>
<path d="M346.444 227.836L346.191 228.693L371.2 236.072L371.453 235.215L346.444 227.836Z" fill="#020059"/>
<path d="M339.641 226.751L321.182 221.304C320.987 221.247 320.854 221.064 320.862 220.861C320.869 220.657 321.012 220.483 321.21 220.439L337.06 216.837L337.259 217.709L323.08 220.93L339.895 225.893L339.641 226.751Z" fill="#020059"/>
<path d="M181.449 85.3682L180.658 85.7852L199.516 121.541L200.307 121.124L181.449 85.3682Z" fill="#020059"/>
<path d="M156.528 308.887C152.724 308.887 149.26 307.99 146.173 306.199C137.752 301.313 135.176 291.625 135.07 291.216L135.935 290.992C135.96 291.089 138.533 300.738 146.628 305.43C151.489 308.247 157.357 308.744 164.066 306.905C164.409 306.81 164.722 306.631 164.972 306.388L172.372 299.161L172.996 299.801L165.596 307.028C165.238 307.378 164.79 307.634 164.302 307.768C161.578 308.514 158.982 308.887 156.528 308.887Z" fill="#020059"/>
<path d="M213.507 127.92H212.613V145.548H213.507V127.92Z" fill="white"/>
<path d="M230.327 121.341H229.434V127.919H230.327V121.341Z" fill="white"/>
<path d="M248.569 126.233L246.916 132.89L247.783 133.105L249.436 126.449L248.569 126.233Z" fill="white"/>
<path d="M196.833 183.46L195.953 183.616L197.516 192.42L198.396 192.263L196.833 183.46Z" fill="white"/>
<path d="M270.843 149.343L269.953 149.265C269.96 149.186 270.736 141.319 278.02 141.307L278.022 142.2C275.321 142.206 273.296 143.391 272.005 145.724C271.018 147.508 270.845 149.325 270.843 149.343Z" fill="white"/>
<path d="M292.388 157.063L291.666 156.536C291.732 156.447 293.309 154.346 296.71 154.625L296.637 155.515C293.729 155.278 292.402 157.045 292.388 157.063Z" fill="white"/>
<path d="M138.75 259.454L134.194 254.205C133.838 253.795 133.881 253.173 134.292 252.817C134.702 252.462 135.324 252.505 135.679 252.916L136.786 254.19V252.167C136.786 251.623 137.226 251.184 137.769 251.184C138.312 251.184 138.752 251.623 138.752 252.167V259.454H138.75Z" fill="#7EEDBA"/>
<path d="M176.977 298.01C176.434 298.01 175.994 297.571 175.994 297.027V292.903L179.178 293.76C179.702 293.901 180.013 294.441 179.871 294.964C179.73 295.488 179.192 295.799 178.667 295.658L177.959 295.468V297.027C177.96 297.571 177.521 298.01 176.977 298.01Z" fill="#7EEDBA"/>
<path d="M149.807 299.59L148.977 299.921L150.081 302.69L150.911 302.359L149.807 299.59Z" fill="#020059"/>
<path d="M160.025 305.492L159.195 305.823L160.3 308.593L161.13 308.261L160.025 305.492Z" fill="#020059"/>
<path d="M144.526 286.791L141.758 287.898L142.09 288.728L144.858 287.621L144.526 286.791Z" fill="#020059"/>
<path d="M134.968 273.2L134.803 274.078L137.733 274.629L137.898 273.75L134.968 273.2Z" fill="#020059"/>
<path d="M167.542 297.015L165.521 299.207L166.179 299.813L168.199 297.62L167.542 297.015Z" fill="#020059"/>
<path d="M169.369 282.585L169.008 283.402L171.735 284.608L172.096 283.79L169.369 282.585Z" fill="#020059"/>
<path d="M157.943 287.72L157.645 290.687L158.534 290.776L158.832 287.809L157.943 287.72Z" fill="#020059"/>
<path d="M151.234 273.871L150.936 276.838L151.825 276.927L152.123 273.961L151.234 273.871Z" fill="#020059"/>
<path d="M261.152 153.766H254.76V154.659H261.152V153.766Z" fill="white"/>
<path d="M282.334 146.16H275.941V147.054H282.334V146.16Z" fill="white"/>
<path d="M237.957 207.83L232.58 211.497L233.084 212.235L238.46 208.568L237.957 207.83Z" fill="white"/>
<path d="M197.327 167.182L195.719 167.412L195.845 168.297L197.454 168.067L197.327 167.182Z" fill="white"/>
<path d="M227.796 144.88L223.428 145.073L223.467 145.966L227.835 145.773L227.796 144.88Z" fill="#020059"/>
<path d="M243.352 129.219L238.984 129.412L239.024 130.305L243.392 130.112L243.352 129.219Z" fill="#020059"/>
<defs>
<linearGradient id="paint0_linear_6978_47355" x1="-21.4563" y1="129.286" x2="606.545" y2="305.999" gradientUnits="userSpaceOnUse">
<stop stop-color="#B9C0F3"/>
<stop offset="1" stop-color="#7EEDBA"/>
</linearGradient>
<linearGradient id="paint1_linear_6978_47355" x1="130.873" y1="115.716" x2="441.667" y2="161.855" gradientUnits="userSpaceOnUse">
<stop stop-color="#3E5EA9"/>
<stop offset="1" stop-color="#7EEDBA"/>
</linearGradient>
<linearGradient id="paint2_linear_6978_47355" x1="130.873" y1="115.716" x2="441.667" y2="161.855" gradientUnits="userSpaceOnUse">
<stop stop-color="#3E5EA9"/>
<stop offset="1" stop-color="#7EEDBA"/>
</linearGradient>
<linearGradient id="paint3_linear_6978_47355" x1="113.553" y1="253.847" x2="210.802" y2="270.147" gradientUnits="userSpaceOnUse">
<stop stop-color="#3E5EA9"/>
<stop offset="1" stop-color="#7EEDBA"/>
</linearGradient>
<linearGradient id="paint4_linear_6978_47355" x1="108.162" y1="279.475" x2="138.68" y2="284.467" gradientUnits="userSpaceOnUse">
<stop stop-color="#3E5EA9"/>
<stop offset="1" stop-color="#7EEDBA"/>
</linearGradient>
</defs>
</svg>
