<svg width="197" height="70" viewBox="0 0 197 70" fill="none" xmlns="http://www.w3.org/2000/svg">
    <path fill-rule="evenodd" clip-rule="evenodd" d="M20.275 56.2856L20.9309 57.3419C21.0938 57.5401 21.2772 57.7211 21.4781 57.8817C22.318 38.5451 38.0096 22.8948 57.889 21.1677C55.2421 18.6936 49.4563 19.8506 39.9655 19.7113C38.6772 14.4832 40.9774 4.69727 39.0197 1.94465C37.1594 -0.670531 34.1569 0.108793 29.8452 0.10833C24.5434 0.10833 20.0624 -0.661273 19.9241 4.85878C19.8166 9.13627 20.3483 15.7034 19.796 19.5158C17.9652 20.2233 8.25892 19.5625 5.36623 19.7483C-0.127176 20.1012 0.0800472 24.4798 0.0861351 29.3887C0.0889449 31.6415 -0.334863 34.543 0.672452 36.4355C3.57756 41.8926 12.3575 38.0453 19.7501 39.4889C20.6649 43.5755 19.0619 52.8587 20.275 56.2853L20.275 56.2856Z" fill="white"/>
    <path fill-rule="evenodd" clip-rule="evenodd" d="M60.8001 25.0884C59.6661 22.9207 50.3668 25.2578 48.6325 25.8407C39.3498 28.9591 31.5728 36.1325 27.8341 45.622C26.6832 48.544 24.6524 56.0455 25.4474 58.1796C26.1348 58.4353 30.5254 58.7074 31.4903 58.5008C32.2141 58.0475 31.923 53.3431 33.7979 48.8307C35.2871 45.2439 36.8109 42.5512 39.902 39.3914C42.9782 36.2493 45.9491 34.372 49.5047 32.9363C52.2405 31.8323 56.5833 31.0664 58.8838 31.2446C59.1915 32.0225 58.9246 33.9266 59.0454 34.8344C57.9908 35.2742 56.203 35.1898 54.9194 35.4105C45.4375 37.0504 37.8775 44.4699 36.1073 54.1423C35.0934 59.692 35.5564 58.7229 38.9298 58.9286C40.0446 58.9964 41.1579 59.204 42.0995 58.9182C42.6731 57.4782 42.5345 55.3245 43.3807 53.0793C44.1445 51.0491 45.1732 49.1766 46.8853 47.3135C49.7609 44.1842 55.498 41.3179 58.5773 42.1896C58.6684 43.241 58.6146 45.0871 58.3687 45.8078C55.4795 46.5492 52.8531 46.387 49.5534 49.9678C47.2676 52.4506 45.5635 57.1015 46.1528 59.3421C49.8224 59.7746 49.2228 59.5684 52.4445 59.4307C53.3389 55.5246 54.9557 53.0883 58.3394 52.6535C58.5399 55.4837 58.7157 57.4128 58.9845 58.7384C59.7483 62.5038 60.033 57.1543 59.8373 51.0572C59.815 50.3616 59.8837 49.4166 59.5186 49.5082C55.3987 50.5555 51.6355 52.0841 50.8958 57.6997C50.8433 58.0998 49.8145 57.9022 47.632 57.7474C48.1183 53.1158 51.1302 49.219 55.7347 47.8878C57.3614 47.4169 58.4773 47.7319 59.6762 47.2897C60.1665 46.2956 60.3646 41.5741 59.8178 40.6719C58.5057 40.2466 55.5273 40.6909 53.6702 41.2388C48.9711 42.6234 44.8674 46.225 42.6874 50.8022C40.9741 54.3977 41.2898 56.1452 40.7568 57.398C40.6913 57.4072 40.547 57.3674 40.5599 57.4206C40.5716 57.472 40.4089 57.4378 40.3651 57.4396L38.9972 57.4109C38.2798 57.3681 37.9468 57.3901 37.275 57.2041C37.0095 55.4228 38.1887 51.5956 39.148 49.4115C42.2472 42.3527 48.7482 37.6467 56.1918 36.7774C57.4496 36.6307 59.0229 36.7706 60.0424 36.4624C60.6409 35.51 60.8217 30.8521 60.2962 29.896C58.6733 29.1498 53.1607 30.1591 50.42 30.9947C42.8935 33.2898 36.3522 39.495 32.9912 46.8896C31.0991 51.0518 31.1726 53.1084 30.4355 56.9428L26.8869 56.8479C26.5254 54.2485 28.2277 48.2694 29.6148 45.1833C34.8733 33.4888 46.0737 25.8534 58.1479 25.7946C59.2737 25.7893 60.3372 26.2762 60.7994 25.0875L60.8001 25.0884Z" fill="#92F8C9"/>
    <path d="M70.6037 54.3848C70.1834 54.3848 69.8373 54.2488 69.5654 53.9769C69.2934 53.7049 69.1575 53.3588 69.1575 52.9386V26.8697C69.1575 26.4494 69.2934 26.1033 69.5654 25.8314C69.8373 25.5594 70.1834 25.4234 70.6037 25.4234C71.0239 25.4234 71.37 25.5594 71.642 25.8314C71.9139 26.1033 72.0499 26.4494 72.0499 26.8697V38.4394H90.1461V26.8697C90.1461 26.4494 90.282 26.1033 90.554 25.8314C90.8259 25.5594 91.172 25.4234 91.5923 25.4234C92.0125 25.4234 92.3586 25.5594 92.6306 25.8314C92.9025 26.1033 93.0385 26.4494 93.0385 26.8697V52.9386C93.0385 53.3588 92.9025 53.7049 92.6306 53.9769C92.3586 54.2488 92.0125 54.3848 91.5923 54.3848C91.172 54.3848 90.8259 54.2488 90.554 53.9769C90.282 53.7049 90.1461 53.3588 90.1461 52.9386V41.0351H72.0499V52.9386C72.0499 53.3588 71.9139 53.7049 71.642 53.9769C71.37 54.2488 71.0239 54.3848 70.6037 54.3848ZM109.271 54.5702C107.269 54.5702 105.489 54.1375 103.931 53.2723C102.399 52.3823 101.187 51.1586 100.297 49.6011C99.4321 48.0437 98.9995 46.2637 98.9995 44.2613C98.9995 42.2341 99.4074 40.4542 100.223 38.9214C101.064 37.364 102.213 36.1402 103.672 35.2503C105.13 34.3603 106.811 33.9153 108.715 33.9153C110.594 33.9153 112.226 34.3479 113.61 35.2132C115.019 36.0537 116.107 37.228 116.873 38.736C117.64 40.244 118.023 41.9622 118.023 43.8905C118.023 44.286 117.899 44.6074 117.652 44.8546C117.405 45.0771 117.083 45.1883 116.688 45.1883H100.928V42.8151H116.984L115.39 43.9646C115.415 42.5308 115.155 41.2453 114.611 40.1081C114.067 38.9709 113.289 38.0809 112.275 37.4381C111.286 36.7954 110.099 36.474 108.715 36.474C107.306 36.474 106.07 36.8077 105.007 37.4752C103.944 38.1427 103.116 39.0698 102.522 40.2564C101.954 41.4183 101.669 42.7533 101.669 44.2613C101.669 45.7693 101.991 47.1043 102.634 48.2662C103.301 49.4281 104.203 50.3428 105.341 51.0103C106.478 51.6778 107.788 52.0115 109.271 52.0115C110.161 52.0115 111.051 51.8632 111.941 51.5665C112.856 51.2451 113.585 50.8496 114.129 50.3799C114.401 50.1574 114.71 50.0461 115.056 50.0461C115.402 50.0214 115.699 50.1079 115.946 50.3057C116.267 50.6024 116.428 50.9237 116.428 51.2698C116.453 51.6159 116.317 51.9126 116.02 52.1598C115.204 52.852 114.166 53.433 112.905 53.9027C111.645 54.3477 110.433 54.5702 109.271 54.5702ZM131.066 54.5702C129.162 54.5702 127.456 54.1252 125.948 53.2352C124.44 52.3205 123.241 51.0844 122.351 49.527C121.486 47.9695 121.053 46.2143 121.053 44.2613C121.053 42.2836 121.498 40.516 122.388 38.9585C123.303 37.401 124.539 36.1773 126.097 35.2874C127.654 34.3727 129.409 33.9153 131.362 33.9153C133.315 33.9153 135.058 34.3727 136.591 35.2874C138.148 36.1773 139.372 37.401 140.262 38.9585C141.177 40.516 141.646 42.2836 141.671 44.2613L140.522 45.1513C140.522 46.9312 140.101 48.5381 139.261 49.972C138.445 51.3811 137.32 52.5059 135.886 53.3465C134.477 54.1623 132.87 54.5702 131.066 54.5702ZM131.362 51.9744C132.796 51.9744 134.069 51.6407 135.182 50.9732C136.319 50.3057 137.209 49.391 137.852 48.2291C138.519 47.0425 138.853 45.7199 138.853 44.2613C138.853 42.778 138.519 41.4554 137.852 40.2935C137.209 39.1316 136.319 38.2169 135.182 37.5494C134.069 36.8572 132.796 36.5111 131.362 36.5111C129.953 36.5111 128.68 36.8572 127.543 37.5494C126.406 38.2169 125.503 39.1316 124.836 40.2935C124.168 41.4554 123.835 42.778 123.835 44.2613C123.835 45.7199 124.168 47.0425 124.836 48.2291C125.503 49.391 126.406 50.3057 127.543 50.9732C128.68 51.6407 129.953 51.9744 131.362 51.9744ZM140.225 54.3848C139.805 54.3848 139.459 54.2612 139.187 54.0139C138.915 53.742 138.779 53.3959 138.779 52.9756V46.6346L139.483 43.705L141.671 44.2613V52.9756C141.671 53.3959 141.535 53.742 141.263 54.0139C140.991 54.2612 140.645 54.3848 140.225 54.3848ZM151.6 54.3848C150.611 54.3848 149.721 54.1128 148.93 53.569C148.164 53.0251 147.558 52.2711 147.113 51.3069C146.693 50.3428 146.483 49.2303 146.483 47.9695V26.8326C146.483 26.4123 146.606 26.0786 146.854 25.8314C147.126 25.5594 147.472 25.4234 147.892 25.4234C148.312 25.4234 148.646 25.5594 148.893 25.8314C149.165 26.0786 149.301 26.4123 149.301 26.8326V47.9695C149.301 49.0325 149.511 49.8978 149.932 50.5653C150.376 51.2328 150.933 51.5665 151.6 51.5665H152.527C152.898 51.5665 153.195 51.7025 153.417 51.9744C153.64 52.2216 153.751 52.5554 153.751 52.9756C153.751 53.3959 153.59 53.742 153.269 54.0139C152.972 54.2612 152.577 54.3848 152.082 54.3848H151.6ZM165.504 54.5702C163.601 54.5702 161.895 54.1252 160.387 53.2352C158.879 52.3205 157.68 51.0844 156.79 49.527C155.925 47.9695 155.492 46.2143 155.492 44.2613C155.492 42.2836 155.937 40.516 156.827 38.9585C157.742 37.401 158.978 36.1773 160.535 35.2874C162.093 34.3727 163.848 33.9153 165.801 33.9153C167.754 33.9153 169.497 34.3727 171.03 35.2874C172.587 36.1773 173.811 37.401 174.701 38.9585C175.615 40.516 176.085 42.2836 176.11 44.2613L174.96 45.1513C174.96 46.9312 174.54 48.5381 173.7 49.972C172.884 51.3811 171.759 52.5059 170.325 53.3465C168.916 54.1623 167.309 54.5702 165.504 54.5702ZM165.801 51.9744C167.235 51.9744 168.508 51.6407 169.621 50.9732C170.758 50.3057 171.648 49.391 172.29 48.2291C172.958 47.0425 173.292 45.7199 173.292 44.2613C173.292 42.778 172.958 41.4554 172.29 40.2935C171.648 39.1316 170.758 38.2169 169.621 37.5494C168.508 36.8572 167.235 36.5111 165.801 36.5111C164.392 36.5111 163.119 36.8572 161.982 37.5494C160.844 38.2169 159.942 39.1316 159.275 40.2935C158.607 41.4554 158.273 42.778 158.273 44.2613C158.273 45.7199 158.607 47.0425 159.275 48.2291C159.942 49.391 160.844 50.3057 161.982 50.9732C163.119 51.6407 164.392 51.9744 165.801 51.9744ZM174.664 54.3848C174.243 54.3848 173.897 54.2612 173.625 54.0139C173.353 53.742 173.217 53.3959 173.217 52.9756V46.6346L173.922 43.705L176.11 44.2613V52.9756C176.11 53.3959 175.974 53.742 175.702 54.0139C175.43 54.2612 175.084 54.3848 174.664 54.3848Z" fill="white"/>
    </svg>
    